<mxfile host="app.diagrams.net" agent="Mozilla/5.0 (X11; Linux x86_64; rv:140.0) Gecko/20100101 Firefox/140.0" version="28.2.7">
  <diagram name="Page-1" id="FbBlU2DdWyxq80L9ELfl">
    <mxGraphModel dx="925" dy="607" grid="1" gridSize="10" guides="1" tooltips="1" connect="1" arrows="1" fold="1" page="1" pageScale="1" pageWidth="827" pageHeight="1169" math="0" shadow="0">
      <root>
        <mxCell id="0" />
        <mxCell id="1" parent="0" />
        <mxCell id="x36rGLM5XzfiIWwNa9VS-18" style="rounded=0;orthogonalLoop=1;jettySize=auto;html=1;" edge="1" parent="1" source="x36rGLM5XzfiIWwNa9VS-1" target="x36rGLM5XzfiIWwNa9VS-8">
          <mxGeometry relative="1" as="geometry" />
        </mxCell>
        <mxCell id="x36rGLM5XzfiIWwNa9VS-1" value="" style="ellipse;whiteSpace=wrap;html=1;aspect=fixed;" vertex="1" parent="1">
          <mxGeometry x="80" y="120" width="80" height="80" as="geometry" />
        </mxCell>
        <mxCell id="x36rGLM5XzfiIWwNa9VS-19" style="rounded=0;orthogonalLoop=1;jettySize=auto;html=1;" edge="1" parent="1" source="x36rGLM5XzfiIWwNa9VS-2" target="x36rGLM5XzfiIWwNa9VS-9">
          <mxGeometry relative="1" as="geometry" />
        </mxCell>
        <mxCell id="x36rGLM5XzfiIWwNa9VS-2" value="" style="ellipse;whiteSpace=wrap;html=1;aspect=fixed;" vertex="1" parent="1">
          <mxGeometry x="200" y="120" width="80" height="80" as="geometry" />
        </mxCell>
        <mxCell id="x36rGLM5XzfiIWwNa9VS-20" style="rounded=0;orthogonalLoop=1;jettySize=auto;html=1;" edge="1" parent="1" source="x36rGLM5XzfiIWwNa9VS-3" target="x36rGLM5XzfiIWwNa9VS-13">
          <mxGeometry relative="1" as="geometry" />
        </mxCell>
        <mxCell id="x36rGLM5XzfiIWwNa9VS-3" value="" style="ellipse;whiteSpace=wrap;html=1;aspect=fixed;" vertex="1" parent="1">
          <mxGeometry x="320" y="120" width="80" height="80" as="geometry" />
        </mxCell>
        <mxCell id="x36rGLM5XzfiIWwNa9VS-21" style="rounded=0;orthogonalLoop=1;jettySize=auto;html=1;" edge="1" parent="1" source="x36rGLM5XzfiIWwNa9VS-4" target="x36rGLM5XzfiIWwNa9VS-11">
          <mxGeometry relative="1" as="geometry" />
        </mxCell>
        <mxCell id="x36rGLM5XzfiIWwNa9VS-4" value="" style="ellipse;whiteSpace=wrap;html=1;aspect=fixed;" vertex="1" parent="1">
          <mxGeometry x="440" y="120" width="80" height="80" as="geometry" />
        </mxCell>
        <mxCell id="x36rGLM5XzfiIWwNa9VS-22" style="rounded=0;orthogonalLoop=1;jettySize=auto;html=1;" edge="1" parent="1" source="x36rGLM5XzfiIWwNa9VS-5" target="x36rGLM5XzfiIWwNa9VS-10">
          <mxGeometry relative="1" as="geometry" />
        </mxCell>
        <mxCell id="x36rGLM5XzfiIWwNa9VS-5" value="" style="ellipse;whiteSpace=wrap;html=1;aspect=fixed;" vertex="1" parent="1">
          <mxGeometry x="560" y="120" width="80" height="80" as="geometry" />
        </mxCell>
        <mxCell id="x36rGLM5XzfiIWwNa9VS-23" style="rounded=0;orthogonalLoop=1;jettySize=auto;html=1;" edge="1" parent="1" source="x36rGLM5XzfiIWwNa9VS-6" target="x36rGLM5XzfiIWwNa9VS-12">
          <mxGeometry relative="1" as="geometry" />
        </mxCell>
        <mxCell id="x36rGLM5XzfiIWwNa9VS-6" value="" style="ellipse;whiteSpace=wrap;html=1;aspect=fixed;" vertex="1" parent="1">
          <mxGeometry x="680" y="121" width="80" height="80" as="geometry" />
        </mxCell>
        <mxCell id="x36rGLM5XzfiIWwNa9VS-7" value="" style="ellipse;whiteSpace=wrap;html=1;aspect=fixed;" vertex="1" parent="1">
          <mxGeometry x="140" y="279" width="80" height="80" as="geometry" />
        </mxCell>
        <mxCell id="x36rGLM5XzfiIWwNa9VS-8" value="" style="ellipse;whiteSpace=wrap;html=1;aspect=fixed;" vertex="1" parent="1">
          <mxGeometry x="260" y="279" width="80" height="80" as="geometry" />
        </mxCell>
        <mxCell id="x36rGLM5XzfiIWwNa9VS-9" value="" style="ellipse;whiteSpace=wrap;html=1;aspect=fixed;" vertex="1" parent="1">
          <mxGeometry x="380" y="279" width="80" height="80" as="geometry" />
        </mxCell>
        <mxCell id="x36rGLM5XzfiIWwNa9VS-10" value="" style="ellipse;whiteSpace=wrap;html=1;aspect=fixed;" vertex="1" parent="1">
          <mxGeometry x="500" y="279" width="80" height="80" as="geometry" />
        </mxCell>
        <mxCell id="x36rGLM5XzfiIWwNa9VS-11" value="" style="ellipse;whiteSpace=wrap;html=1;aspect=fixed;" vertex="1" parent="1">
          <mxGeometry x="620" y="279" width="80" height="80" as="geometry" />
        </mxCell>
        <mxCell id="x36rGLM5XzfiIWwNa9VS-12" value="" style="ellipse;whiteSpace=wrap;html=1;aspect=fixed;" vertex="1" parent="1">
          <mxGeometry x="740" y="280" width="80" height="80" as="geometry" />
        </mxCell>
        <mxCell id="x36rGLM5XzfiIWwNa9VS-13" value="" style="ellipse;whiteSpace=wrap;html=1;aspect=fixed;" vertex="1" parent="1">
          <mxGeometry x="20" y="279" width="80" height="80" as="geometry" />
        </mxCell>
        <mxCell id="x36rGLM5XzfiIWwNa9VS-14" value="A" style="text;html=1;whiteSpace=wrap;strokeColor=none;fillColor=none;align=center;verticalAlign=middle;rounded=0;" vertex="1" parent="1">
          <mxGeometry x="380" y="20" width="60" height="30" as="geometry" />
        </mxCell>
        <mxCell id="x36rGLM5XzfiIWwNa9VS-16" value="B" style="text;html=1;whiteSpace=wrap;strokeColor=none;fillColor=none;align=center;verticalAlign=middle;rounded=0;" vertex="1" parent="1">
          <mxGeometry x="384" y="429" width="60" height="30" as="geometry" />
        </mxCell>
        <mxCell id="x36rGLM5XzfiIWwNa9VS-24" value="Nav sirjekcija, jo nav attēlojums uz kopu.&lt;br&gt;Ir injekcija, jo ir vienviennozīmīgs attēlojums kopā." style="text;html=1;whiteSpace=wrap;strokeColor=none;fillColor=none;align=center;verticalAlign=middle;rounded=0;" vertex="1" parent="1">
          <mxGeometry x="510" y="439" width="270" height="30" as="geometry" />
        </mxCell>
      </root>
    </mxGraphModel>
  </diagram>
</mxfile>
